<mxfile host="app.diagrams.net" modified="2024-05-06T14:33:34.003Z" agent="Mozilla/5.0 (Windows NT 10.0; Win64; x64) AppleWebKit/537.36 (KHTML, like Gecko) Chrome/124.0.0.0 Safari/537.36" etag="b5rdwRohc_iMAyWSxs4a" version="24.3.1" type="github">
  <diagram id="R2lEEEUBdFMjLlhIrx00" name="Page-1">
    <mxGraphModel dx="1718" dy="555" grid="1" gridSize="10" guides="1" tooltips="1" connect="1" arrows="1" fold="1" page="1" pageScale="1" pageWidth="850" pageHeight="1100" math="0" shadow="0" extFonts="Permanent Marker^https://fonts.googleapis.com/css?family=Permanent+Marker">
      <root>
        <mxCell id="0" />
        <mxCell id="1" parent="0" />
        <mxCell id="7vOw8NUDs1k6d0NoB0Nu-3" style="rounded=0;orthogonalLoop=1;jettySize=auto;html=1;entryX=0.5;entryY=1;entryDx=0;entryDy=0;endArrow=none;endFill=0;" edge="1" parent="1" source="7vOw8NUDs1k6d0NoB0Nu-1">
          <mxGeometry relative="1" as="geometry">
            <mxPoint x="140" y="80" as="targetPoint" />
          </mxGeometry>
        </mxCell>
        <mxCell id="7vOw8NUDs1k6d0NoB0Nu-6" value="" style="rounded=0;orthogonalLoop=1;jettySize=auto;html=1;entryX=0.5;entryY=1;entryDx=0;entryDy=0;endArrow=none;endFill=0;" edge="1" parent="1" source="7vOw8NUDs1k6d0NoB0Nu-1" target="7vOw8NUDs1k6d0NoB0Nu-5">
          <mxGeometry relative="1" as="geometry" />
        </mxCell>
        <mxCell id="7vOw8NUDs1k6d0NoB0Nu-9" style="edgeStyle=none;rounded=0;orthogonalLoop=1;jettySize=auto;html=1;entryX=0.5;entryY=1;entryDx=0;entryDy=0;strokeColor=default;align=center;verticalAlign=middle;fontFamily=Helvetica;fontSize=11;fontColor=default;labelBackgroundColor=default;endArrow=none;endFill=0;" edge="1" parent="1" source="7vOw8NUDs1k6d0NoB0Nu-1" target="7vOw8NUDs1k6d0NoB0Nu-8">
          <mxGeometry relative="1" as="geometry" />
        </mxCell>
        <mxCell id="7vOw8NUDs1k6d0NoB0Nu-12" value="" style="edgeStyle=none;rounded=0;orthogonalLoop=1;jettySize=auto;html=1;strokeColor=default;align=center;verticalAlign=middle;fontFamily=Helvetica;fontSize=11;fontColor=default;labelBackgroundColor=default;endArrow=none;endFill=0;" edge="1" parent="1" source="7vOw8NUDs1k6d0NoB0Nu-1" target="7vOw8NUDs1k6d0NoB0Nu-11">
          <mxGeometry relative="1" as="geometry" />
        </mxCell>
        <mxCell id="7vOw8NUDs1k6d0NoB0Nu-19" style="edgeStyle=none;rounded=0;orthogonalLoop=1;jettySize=auto;html=1;entryX=0;entryY=0.5;entryDx=0;entryDy=0;strokeColor=default;align=center;verticalAlign=middle;fontFamily=Helvetica;fontSize=11;fontColor=default;labelBackgroundColor=default;endArrow=none;endFill=0;" edge="1" parent="1" source="7vOw8NUDs1k6d0NoB0Nu-1" target="7vOw8NUDs1k6d0NoB0Nu-18">
          <mxGeometry relative="1" as="geometry" />
        </mxCell>
        <mxCell id="7vOw8NUDs1k6d0NoB0Nu-21" style="edgeStyle=none;rounded=0;orthogonalLoop=1;jettySize=auto;html=1;entryX=0.5;entryY=0;entryDx=0;entryDy=0;strokeColor=default;align=center;verticalAlign=middle;fontFamily=Helvetica;fontSize=11;fontColor=default;labelBackgroundColor=default;endArrow=none;endFill=0;" edge="1" parent="1" source="7vOw8NUDs1k6d0NoB0Nu-1" target="7vOw8NUDs1k6d0NoB0Nu-43">
          <mxGeometry relative="1" as="geometry">
            <mxPoint x="210" y="180" as="targetPoint" />
          </mxGeometry>
        </mxCell>
        <mxCell id="7vOw8NUDs1k6d0NoB0Nu-1" value="USERS" style="whiteSpace=wrap;html=1;align=center;" vertex="1" parent="1">
          <mxGeometry x="160" y="120" width="100" height="40" as="geometry" />
        </mxCell>
        <mxCell id="7vOw8NUDs1k6d0NoB0Nu-5" value="first name" style="ellipse;whiteSpace=wrap;html=1;align=center;" vertex="1" parent="1">
          <mxGeometry x="230" y="40" width="100" height="40" as="geometry" />
        </mxCell>
        <mxCell id="7vOw8NUDs1k6d0NoB0Nu-8" value="last name" style="ellipse;whiteSpace=wrap;html=1;align=center;fontFamily=Helvetica;fontSize=11;fontColor=default;labelBackgroundColor=default;" vertex="1" parent="1">
          <mxGeometry x="160" width="100" height="40" as="geometry" />
        </mxCell>
        <mxCell id="7vOw8NUDs1k6d0NoB0Nu-11" value="username" style="ellipse;whiteSpace=wrap;html=1;align=center;fontFamily=Helvetica;fontSize=11;fontColor=default;labelBackgroundColor=default;" vertex="1" parent="1">
          <mxGeometry x="30" y="120" width="100" height="40" as="geometry" />
        </mxCell>
        <mxCell id="7vOw8NUDs1k6d0NoB0Nu-15" style="edgeStyle=none;rounded=0;orthogonalLoop=1;jettySize=auto;html=1;entryX=0.5;entryY=0;entryDx=0;entryDy=0;strokeColor=default;align=center;verticalAlign=middle;fontFamily=Helvetica;fontSize=11;fontColor=default;labelBackgroundColor=default;endArrow=none;endFill=0;" edge="1" parent="1" source="7vOw8NUDs1k6d0NoB0Nu-13" target="7vOw8NUDs1k6d0NoB0Nu-14">
          <mxGeometry relative="1" as="geometry" />
        </mxCell>
        <mxCell id="7vOw8NUDs1k6d0NoB0Nu-26" style="edgeStyle=none;rounded=0;orthogonalLoop=1;jettySize=auto;html=1;exitX=0;exitY=0.5;exitDx=0;exitDy=0;entryX=0.5;entryY=0;entryDx=0;entryDy=0;strokeColor=default;align=center;verticalAlign=middle;fontFamily=Helvetica;fontSize=11;fontColor=default;labelBackgroundColor=default;endArrow=none;endFill=0;" edge="1" parent="1" source="7vOw8NUDs1k6d0NoB0Nu-13" target="7vOw8NUDs1k6d0NoB0Nu-25">
          <mxGeometry relative="1" as="geometry" />
        </mxCell>
        <mxCell id="7vOw8NUDs1k6d0NoB0Nu-27" style="edgeStyle=none;rounded=0;orthogonalLoop=1;jettySize=auto;html=1;exitX=1;exitY=0.5;exitDx=0;exitDy=0;entryX=0.5;entryY=0;entryDx=0;entryDy=0;strokeColor=default;align=center;verticalAlign=middle;fontFamily=Helvetica;fontSize=11;fontColor=default;labelBackgroundColor=default;endArrow=none;endFill=0;" edge="1" parent="1" source="7vOw8NUDs1k6d0NoB0Nu-13" target="7vOw8NUDs1k6d0NoB0Nu-24">
          <mxGeometry relative="1" as="geometry" />
        </mxCell>
        <mxCell id="7vOw8NUDs1k6d0NoB0Nu-13" value="GAMES" style="whiteSpace=wrap;html=1;align=center;fontFamily=Helvetica;fontSize=11;fontColor=default;labelBackgroundColor=default;" vertex="1" parent="1">
          <mxGeometry x="160" y="280" width="100" height="40" as="geometry" />
        </mxCell>
        <mxCell id="7vOw8NUDs1k6d0NoB0Nu-32" style="edgeStyle=none;rounded=0;orthogonalLoop=1;jettySize=auto;html=1;entryX=0.5;entryY=0;entryDx=0;entryDy=0;strokeColor=default;align=center;verticalAlign=middle;fontFamily=Helvetica;fontSize=11;fontColor=default;labelBackgroundColor=default;endArrow=none;endFill=0;" edge="1" parent="1" source="7vOw8NUDs1k6d0NoB0Nu-14">
          <mxGeometry relative="1" as="geometry">
            <mxPoint x="210" y="400" as="targetPoint" />
          </mxGeometry>
        </mxCell>
        <mxCell id="7vOw8NUDs1k6d0NoB0Nu-14" value="memory game" style="ellipse;whiteSpace=wrap;html=1;align=center;fontFamily=Helvetica;fontSize=11;fontColor=default;labelBackgroundColor=default;" vertex="1" parent="1">
          <mxGeometry x="160" y="340" width="100" height="40" as="geometry" />
        </mxCell>
        <mxCell id="7vOw8NUDs1k6d0NoB0Nu-18" value="id" style="ellipse;whiteSpace=wrap;html=1;align=center;fontStyle=4;fontFamily=Helvetica;fontSize=11;fontColor=default;labelBackgroundColor=default;" vertex="1" parent="1">
          <mxGeometry x="300" y="120" width="100" height="40" as="geometry" />
        </mxCell>
        <mxCell id="7vOw8NUDs1k6d0NoB0Nu-22" style="edgeStyle=none;rounded=0;orthogonalLoop=1;jettySize=auto;html=1;entryX=0.5;entryY=0;entryDx=0;entryDy=0;strokeColor=default;align=center;verticalAlign=middle;fontFamily=Helvetica;fontSize=11;fontColor=default;labelBackgroundColor=default;endArrow=none;endFill=0;exitX=0.5;exitY=1;exitDx=0;exitDy=0;" edge="1" parent="1" source="7vOw8NUDs1k6d0NoB0Nu-43" target="7vOw8NUDs1k6d0NoB0Nu-13">
          <mxGeometry relative="1" as="geometry">
            <mxPoint x="210" y="260" as="sourcePoint" />
          </mxGeometry>
        </mxCell>
        <mxCell id="7vOw8NUDs1k6d0NoB0Nu-40" style="edgeStyle=none;rounded=0;orthogonalLoop=1;jettySize=auto;html=1;entryX=0;entryY=0.5;entryDx=0;entryDy=0;strokeColor=default;align=center;verticalAlign=middle;fontFamily=Helvetica;fontSize=11;fontColor=default;labelBackgroundColor=default;endArrow=none;endFill=0;" edge="1" parent="1" target="7vOw8NUDs1k6d0NoB0Nu-39">
          <mxGeometry relative="1" as="geometry">
            <mxPoint x="270" y="220" as="sourcePoint" />
          </mxGeometry>
        </mxCell>
        <mxCell id="7vOw8NUDs1k6d0NoB0Nu-42" value="" style="edgeStyle=none;rounded=0;orthogonalLoop=1;jettySize=auto;html=1;strokeColor=default;align=center;verticalAlign=middle;fontFamily=Helvetica;fontSize=11;fontColor=default;labelBackgroundColor=default;endArrow=none;endFill=0;" edge="1" parent="1" target="7vOw8NUDs1k6d0NoB0Nu-41">
          <mxGeometry relative="1" as="geometry">
            <mxPoint x="150" y="220" as="sourcePoint" />
          </mxGeometry>
        </mxCell>
        <mxCell id="7vOw8NUDs1k6d0NoB0Nu-37" style="edgeStyle=none;rounded=0;orthogonalLoop=1;jettySize=auto;html=1;exitX=0.5;exitY=1;exitDx=0;exitDy=0;entryX=0.5;entryY=0;entryDx=0;entryDy=0;strokeColor=default;align=center;verticalAlign=middle;fontFamily=Helvetica;fontSize=11;fontColor=default;labelBackgroundColor=default;endArrow=none;endFill=0;" edge="1" parent="1" source="7vOw8NUDs1k6d0NoB0Nu-24">
          <mxGeometry relative="1" as="geometry">
            <mxPoint x="335" y="370" as="targetPoint" />
          </mxGeometry>
        </mxCell>
        <mxCell id="7vOw8NUDs1k6d0NoB0Nu-24" value="number game" style="ellipse;whiteSpace=wrap;html=1;align=center;fontFamily=Helvetica;fontSize=11;fontColor=default;labelBackgroundColor=default;" vertex="1" parent="1">
          <mxGeometry x="270" y="320" width="100" height="40" as="geometry" />
        </mxCell>
        <mxCell id="7vOw8NUDs1k6d0NoB0Nu-36" style="edgeStyle=none;rounded=0;orthogonalLoop=1;jettySize=auto;html=1;exitX=0.5;exitY=1;exitDx=0;exitDy=0;entryX=0.5;entryY=0;entryDx=0;entryDy=0;strokeColor=default;align=center;verticalAlign=middle;fontFamily=Helvetica;fontSize=11;fontColor=default;labelBackgroundColor=default;endArrow=none;endFill=0;" edge="1" parent="1" source="7vOw8NUDs1k6d0NoB0Nu-25">
          <mxGeometry relative="1" as="geometry">
            <mxPoint x="95" y="370" as="targetPoint" />
          </mxGeometry>
        </mxCell>
        <mxCell id="7vOw8NUDs1k6d0NoB0Nu-25" value="colors game" style="ellipse;whiteSpace=wrap;html=1;align=center;fontFamily=Helvetica;fontSize=11;fontColor=default;labelBackgroundColor=default;" vertex="1" parent="1">
          <mxGeometry x="60" y="320" width="100" height="40" as="geometry" />
        </mxCell>
        <mxCell id="7vOw8NUDs1k6d0NoB0Nu-39" value="scores" style="ellipse;whiteSpace=wrap;html=1;align=center;fontFamily=Helvetica;fontSize=11;fontColor=default;labelBackgroundColor=default;" vertex="1" parent="1">
          <mxGeometry x="320" y="180" width="100" height="40" as="geometry" />
        </mxCell>
        <mxCell id="7vOw8NUDs1k6d0NoB0Nu-41" value="&lt;u&gt;id&lt;/u&gt;" style="ellipse;whiteSpace=wrap;html=1;align=center;fontFamily=Helvetica;fontSize=11;fontColor=default;labelBackgroundColor=default;" vertex="1" parent="1">
          <mxGeometry x="10" y="200" width="100" height="40" as="geometry" />
        </mxCell>
        <mxCell id="7vOw8NUDs1k6d0NoB0Nu-49" style="edgeStyle=none;rounded=0;orthogonalLoop=1;jettySize=auto;html=1;exitX=1;exitY=0.5;exitDx=0;exitDy=0;entryX=0;entryY=0.5;entryDx=0;entryDy=0;strokeColor=default;align=center;verticalAlign=middle;fontFamily=Helvetica;fontSize=11;fontColor=default;labelBackgroundColor=default;endArrow=none;endFill=0;" edge="1" parent="1" source="7vOw8NUDs1k6d0NoB0Nu-43" target="7vOw8NUDs1k6d0NoB0Nu-47">
          <mxGeometry relative="1" as="geometry" />
        </mxCell>
        <mxCell id="7vOw8NUDs1k6d0NoB0Nu-43" value="USER GAMES" style="shape=associativeEntity;whiteSpace=wrap;html=1;align=center;fontFamily=Helvetica;fontSize=11;fontColor=default;labelBackgroundColor=default;" vertex="1" parent="1">
          <mxGeometry x="140" y="190" width="140" height="60" as="geometry" />
        </mxCell>
        <mxCell id="7vOw8NUDs1k6d0NoB0Nu-45" value="e-mail" style="ellipse;whiteSpace=wrap;html=1;align=center;fontFamily=Helvetica;fontSize=11;fontColor=default;labelBackgroundColor=default;" vertex="1" parent="1">
          <mxGeometry x="80" y="40" width="100" height="40" as="geometry" />
        </mxCell>
        <mxCell id="7vOw8NUDs1k6d0NoB0Nu-47" value="cogniton evaluation" style="ellipse;whiteSpace=wrap;html=1;align=center;dashed=1;fontFamily=Helvetica;fontSize=11;fontColor=default;labelBackgroundColor=default;" vertex="1" parent="1">
          <mxGeometry x="320" y="230" width="100" height="40" as="geometry" />
        </mxCell>
        <mxCell id="7vOw8NUDs1k6d0NoB0Nu-50" value="5 best scores from all users" style="ellipse;whiteSpace=wrap;html=1;align=center;dashed=1;fontFamily=Helvetica;fontSize=11;fontColor=default;labelBackgroundColor=default;" vertex="1" parent="1">
          <mxGeometry x="270" y="370" width="160" height="40" as="geometry" />
        </mxCell>
        <mxCell id="7vOw8NUDs1k6d0NoB0Nu-51" value="5 best scores from all users" style="ellipse;whiteSpace=wrap;html=1;align=center;dashed=1;fontFamily=Helvetica;fontSize=11;fontColor=default;labelBackgroundColor=default;" vertex="1" parent="1">
          <mxGeometry x="130" y="400" width="160" height="40" as="geometry" />
        </mxCell>
        <mxCell id="7vOw8NUDs1k6d0NoB0Nu-52" value="5 best scores from all users" style="ellipse;whiteSpace=wrap;html=1;align=center;dashed=1;fontFamily=Helvetica;fontSize=11;fontColor=default;labelBackgroundColor=default;" vertex="1" parent="1">
          <mxGeometry x="-10" y="370" width="160" height="40" as="geometry" />
        </mxCell>
      </root>
    </mxGraphModel>
  </diagram>
</mxfile>
